<svg width="1920" height="1678" viewBox="0 0 1920 1678" fill="none" xmlns="http://www.w3.org/2000/svg">
<path opacity="0.9" d="M-32.4053 1.80664C-10.3638 20.792 12.8789 52.875 36.8223 95.5645C60.7618 138.247 85.3876 191.504 110.204 252.809C159.837 375.418 210.223 530.192 257.414 696.886C270.605 743.482 283.546 791.008 296.151 839.023C282.901 869.052 270.079 899.343 257.854 929.82C101.717 793.578 -35.0635 651.613 -125.158 514.562L-125.994 515.111C-35.7861 652.334 101.167 794.451 257.461 930.805C163.763 1164.68 105.361 1409.45 158.577 1630.48L159.509 1630.1C106.392 1409.48 164.625 1165.11 258.198 931.448C283.717 953.7 309.751 975.797 336.18 997.694C395.736 1243.45 444.262 1489.33 470.572 1678L471.049 1677.85L471.523 1677.71C445.259 1489.38 396.864 1244.06 337.461 998.755C407.752 1056.95 480.819 1113.73 554.427 1168.21C826.097 1369.29 1105.17 1539.2 1279.18 1634.16L1279.42 1633.72L1279.66 1633.29C1105.68 1538.34 826.651 1368.46 555.021 1167.41C481.061 1112.66 407.654 1055.61 337.067 997.132C324.244 944.22 310.909 891.315 297.175 838.988C312.42 804.451 328.234 770.257 344.359 736.524C413.303 592.302 487.907 456.561 548.133 338.328C608.337 220.137 654.191 119.408 665.517 45.333L664.569 45.2988C653.278 119.15 607.526 219.703 547.306 337.926C487.107 456.107 412.467 591.914 343.518 736.15C327.558 769.535 311.904 803.376 296.8 837.559C284.281 789.899 271.432 742.724 258.337 696.466C211.141 529.754 160.742 374.944 111.092 252.291C86.2666 190.965 61.6262 137.67 37.6621 94.9434C13.7018 52.2238 -9.59766 20.0401 -31.7471 0.961914L-32.4053 1.80664ZM1484.72 4.62305C1545.4 143.957 1627.91 388.38 1678.21 668.762C1680.7 682.643 1683.11 696.612 1685.44 710.661C1678.15 722.06 1670.89 733.627 1663.66 745.357C1367.43 337.681 1047.92 113.391 881.627 39.3672L881.221 40.2812C1047.39 114.25 1366.9 338.528 1663.09 746.279C1531.33 960.303 1410.65 1228.61 1368.81 1522.05L1369.29 1522.2L1369.76 1522.34C1411.56 1229.17 1532.11 961.084 1663.76 747.191C1675.31 763.111 1686.83 779.309 1698.3 795.789C1731.97 1042.33 1736.46 1307.48 1678.42 1548.57L1678.88 1548.76L1679.35 1548.95C1737.3 1308.26 1732.96 1043.64 1699.49 797.489C1825.16 978.273 1945.26 1192.83 2045.96 1443.77L2046.89 1443.4C1945.86 1191.65 1825.32 976.492 1699.19 795.312C1695.31 766.944 1691.05 738.824 1686.45 711.016C1804.2 526.801 1927.64 386.57 2009.49 310.662L2008.81 309.836C1927.05 385.655 1803.82 525.615 1686.19 709.477C1683.93 695.806 1681.58 682.21 1679.15 668.698C1628.84 388.225 1546.3 143.711 1485.58 4.28906L1484.72 4.62305ZM296.528 840.458C310.037 891.954 323.159 944.006 335.786 996.07C309.627 974.382 283.856 952.499 258.592 930.465C270.703 900.258 283.403 870.231 296.528 840.458ZM1685.69 712.201C1690.12 739.065 1694.24 766.219 1698 793.604C1686.82 777.559 1675.59 761.783 1664.32 746.27C1671.42 734.755 1678.54 723.397 1685.69 712.201Z" fill="#FFF9C2" fill-opacity="0.6"/>
</svg>
