<svg width="1920" height="1744" viewBox="0 0 1920 1744" fill="none" xmlns="http://www.w3.org/2000/svg">
<path opacity="0.4" d="M1953.28 -143.815C1931.23 -122.427 1907.99 -86.2856 1884.04 -38.2041C1860.1 9.87032 1835.47 69.8535 1810.66 138.898C1761.02 276.988 1710.63 451.301 1663.44 639.037C1650.88 689.022 1638.54 739.957 1626.5 791.413C1639.12 823.724 1651.33 856.3 1663 889.067C1819.13 735.632 1955.91 575.75 2046.01 421.401L2046.87 421.905C1956.65 576.46 1819.68 736.529 1663.37 890.107C1757.08 1153.52 1815.49 1429.19 1762.28 1678.11L1761.82 1677.9L1761.36 1677.7C1814.48 1429.2 1756.24 1153.96 1662.67 890.799C1638.23 914.801 1613.31 938.644 1588.03 962.282C1526.94 1244.21 1477.08 1527.54 1450.28 1744L1449.81 1743.84L1449.35 1743.67C1476.1 1527.59 1525.83 1244.9 1586.76 963.468C1515.45 1030.1 1441.23 1095.09 1366.46 1157.43C1094.79 1383.89 815.718 1575.24 641.699 1682.19L641.176 1681.34C815.157 1574.41 1094.19 1383.09 1365.82 1156.66C1440.95 1094.03 1515.52 1028.71 1587.14 961.749C1599.5 904.692 1612.32 847.692 1625.51 791.316C1609.7 750.835 1593.27 710.767 1576.5 671.261C1507.56 508.834 1432.95 355.957 1372.73 222.803C1312.52 89.6896 1266.67 -23.7411 1255.35 -107.147L1256.29 -107.115C1267.58 -23.9237 1313.34 89.3334 1373.56 222.475C1433.76 355.575 1508.39 508.521 1577.34 670.962C1593.94 710.063 1610.21 749.718 1625.87 789.783C1637.82 738.729 1650.06 688.19 1662.53 638.588C1709.72 450.835 1760.12 276.49 1809.77 138.36C1834.6 69.2959 1859.24 9.27828 1883.2 -38.8369C1907.16 -86.945 1930.45 -123.183 1952.59 -144.663L1953.28 -143.815ZM436.143 -153.02C372.445 11.701 284.71 306.777 235.412 642.2C242.701 655.046 249.968 668.082 257.202 681.303C553.42 222.196 872.916 -30.3965 1039.21 -113.764L1039.66 -112.869C873.485 -29.5629 553.96 223.041 257.747 682.301C389.515 923.338 510.205 1225.51 552.041 1556L551.105 1556.33C509.307 1226.13 388.753 924.2 257.103 683.302C245.545 701.235 234.023 719.482 222.547 738.047C188.88 1015.7 184.39 1314.33 242.44 1585.87L241.98 1586.08L241.52 1586.29C183.568 1315.21 187.914 1017.17 221.394 739.915C95.7128 943.523 -24.3838 1185.17 -125.092 1467.79L-126.033 1467.46C-24.999 1183.92 95.5485 941.603 221.68 737.55C225.559 705.594 229.826 673.916 234.427 642.59C116.668 435.099 -6.78332 277.152 -88.6445 191.656L-87.9365 190.828C-6.17828 276.216 117.048 433.84 234.675 640.903C284.027 305.9 371.649 11.2824 435.285 -153.278L436.143 -153.02ZM1626.14 792.947C1613.18 848.4 1600.57 904.451 1588.4 960.563C1613.43 937.147 1638.1 913.532 1662.3 889.76C1650.74 857.28 1638.64 824.985 1626.14 792.947ZM235.164 643.889C230.726 674.178 226.601 704.795 222.837 735.674C234.036 717.583 245.28 699.794 256.557 682.304C249.454 669.319 242.32 656.512 235.164 643.889Z" fill="#FEEB41"/>
</svg>
