<svg width="20" height="21" viewBox="0 0 20 21" fill="none" xmlns="http://www.w3.org/2000/svg">
<path d="M16.3317 10.0387L13.6097 7.27102L11.7044 9.2084C10.4778 8.53668 9.10535 8.18781 7.71218 8.19358C6.03365 8.19358 4.49121 8.68254 3.22097 9.4944C2.89434 9.08847 2.72195 8.65487 2.72195 8.19358C2.72195 6.54219 4.95394 5.19525 7.71218 5.19525C9.00965 5.19525 10.2527 5.49969 11.1872 6.04401L13.02 4.18043C11.5864 3.20251 9.69013 2.65819 7.71218 2.65819C3.45687 2.65819 0 5.13989 0 8.19358C0 9.29144 0.453658 10.3524 1.30653 11.2657C0.462653 12.3648 0.00293685 13.7184 0 15.1128V18.3418C0 19.3658 0.807511 20.1869 1.81463 20.1869H13.6097C14.6169 20.1869 15.4244 19.3658 15.4244 18.3418V15.1128C15.4244 13.9873 15.1159 12.871 14.5171 11.8838L16.3317 10.0387ZM3.62926 16.0354V18.3418H1.81463V16.0354C1.81463 14.445 2.43598 12.9197 3.54198 11.7951C4.64799 10.6705 6.14806 10.0387 7.71218 10.0387C8.02067 10.0387 8.32009 10.0756 8.6195 10.1217C5.79775 10.5646 3.62926 13.037 3.62926 16.0354ZM19.9609 6.62522C19.9609 8.129 18.972 9.66969 17.5838 10.011L16.9759 9.38369L16.3317 8.74712H17.0122C17.9195 8.74712 18.6 7.47398 18.6 6.53297C18.6 5.59195 17.8288 4.63248 16.9214 4.63248V3.24864C18.6 3.24864 19.9609 4.91848 19.9609 6.62522ZM15.1068 6.09936C14.5443 5.5366 14.1995 4.76164 14.1995 3.90366C14.1995 2.19691 15.5605 0.813065 17.239 0.813065V2.19691C16.3317 2.19691 15.5605 2.96264 15.5605 3.90366C15.5605 4.84467 16.3317 5.6104 17.239 5.6104V6.99425C16.495 6.99425 15.8054 7.22489 15.2338 7.62159L14.263 6.63445C14.5171 6.43148 14.8074 6.24697 15.1068 6.09936Z" fill="#313B4E"/>
</svg>
