<svg width="512" height="743" viewBox="0 0 512 743" fill="none" xmlns="http://www.w3.org/2000/svg">
<path opacity="0.6" d="M178.433 0.00976562C182.996 32.2546 202.039 77.9475 227.242 132.309C252.426 186.628 283.742 249.566 312.748 316.179C320.76 334.578 328.597 353.263 336.083 372.13C340.965 352.108 345.968 332.289 351.064 312.841C370.175 239.914 390.583 172.189 410.69 118.527C420.744 91.6971 430.725 68.3754 440.434 49.6748C450.139 30.9814 459.586 16.8757 468.582 8.50488L469.262 9.35156C460.365 17.6304 450.968 31.6369 441.277 50.3027C431.59 68.9616 421.623 92.2481 411.577 119.059C391.485 172.679 371.086 240.37 351.98 313.279C346.786 333.102 341.688 353.311 336.717 373.726C337.561 375.86 338.4 377.996 339.234 380.135C407.98 351.083 470.852 313.539 510.73 248.036L511.158 248.296L511.585 248.556C471.555 314.307 408.448 351.975 339.599 381.069C384.436 496.165 415.232 617.407 392.002 721.642L391.539 721.44L391.076 721.237C414.231 617.341 383.552 496.408 338.766 381.422C337.317 382.032 335.865 382.638 334.411 383.241C303.837 510.208 278.373 644.075 265.681 742.4L265.21 742.245L264.739 742.089C277.408 643.95 302.791 510.442 333.277 383.71C303.413 396.051 272.577 406.907 242.164 417.843C139.056 454.919 40.8316 492.931 0.927734 592.69L0 592.319C40.0961 492.079 138.797 453.949 241.825 416.901C272.489 405.875 303.539 394.942 333.566 382.506C334.279 379.549 334.995 376.596 335.713 373.646C328.086 354.378 320.088 335.292 311.904 316.498C282.904 249.9 251.616 187.023 226.41 132.655C201.223 78.3292 182.089 32.4604 177.495 0L178.433 0.00976562ZM336.346 375.247C335.796 377.507 335.248 379.769 334.702 382.034C335.937 381.521 337.171 381.005 338.402 380.486C337.72 378.738 337.034 376.992 336.346 375.247Z" fill="#FEEB41"/>
</svg>
