<svg width="1920" height="1153" viewBox="0 0 1920 1153" fill="none" xmlns="http://www.w3.org/2000/svg">
<path opacity="0.6" d="M1949.2 -68.5576C1927.18 -54.7401 1903.95 -31.3868 1880.02 -0.301758C1856.08 30.7784 1831.46 69.5621 1806.65 114.211C1757.02 203.509 1706.64 316.236 1659.45 437.651C1646.9 469.941 1634.58 502.843 1622.56 536.082C1635.16 556.959 1647.36 578.007 1659.02 599.179C1815.17 499.93 1951.97 396.515 2042.07 296.684L2042.81 297.354C1952.62 397.281 1815.73 500.767 1659.5 600.058C1693.09 661.144 1722.14 723.249 1743.12 785.211C1780.66 896.01 1792.43 1006.39 1758.29 1109.68L1757.34 1109.36C1791.39 1006.35 1779.67 896.209 1742.18 785.531C1721.22 723.654 1692.21 661.623 1658.65 600.595C1634.21 616.123 1609.29 631.548 1584 646.841C1522.94 829.129 1473.1 1012.31 1446.3 1152.26L1445.32 1152.07C1472.07 1012.36 1521.77 829.596 1582.68 647.641C1511.36 690.734 1437.15 732.771 1362.38 773.084C1090.71 919.553 811.637 1043.31 637.622 1112.48L637.253 1111.55C811.238 1042.39 1090.27 918.651 1361.9 772.203C1437.02 731.703 1511.57 689.467 1583.17 646.173C1595.51 609.353 1608.3 572.571 1621.45 536.19C1605.66 510.04 1589.25 484.155 1572.5 458.634C1503.56 353.583 1428.96 254.714 1368.73 168.59C1338.62 125.535 1312.11 85.6667 1291.71 49.8223C1271.31 13.9842 1257 -17.865 1251.33 -44.8789L1252.31 -45.084C1257.95 -18.2231 1272.19 13.5188 1292.58 49.3281C1312.95 85.1314 1339.45 124.968 1369.55 168.016C1429.75 254.096 1504.39 353.022 1573.34 458.085C1589.95 483.388 1606.22 509.052 1621.89 534.98C1633.83 501.993 1646.06 469.339 1658.52 437.289C1705.72 315.85 1756.12 203.077 1805.78 113.726C1830.6 69.0499 1855.25 30.2209 1879.22 -0.911133C1903.19 -32.0377 1926.5 -55.4973 1948.67 -69.4053L1949.2 -68.5576ZM432.144 -74.4873C371.466 26.996 288.958 205.021 238.665 409.234C236.184 419.311 233.782 429.451 231.464 439.648C238.729 447.931 245.972 456.336 253.183 464.859C549.443 167.851 868.993 4.45959 1035.28 -49.457L1035.59 -48.5059C869.42 5.37234 549.982 168.705 253.83 465.626C257.502 469.971 261.166 474.346 264.819 478.752C392.226 632.413 507.392 822.887 548.063 1030.69L547.082 1030.88C506.455 823.304 391.397 632.98 264.05 479.39C260.417 475.008 256.773 470.658 253.122 466.337C241.568 477.931 230.049 489.727 218.577 501.729C184.908 681.298 180.422 874.405 238.455 1049.97L237.506 1050.29C179.566 875 183.882 682.301 217.313 503.053C91.6475 634.726 -28.432 790.999 -129.125 973.76L-130 973.277C-28.9799 789.923 91.5431 633.217 217.649 501.253C221.523 480.615 225.782 460.156 230.375 439.925C112.651 305.786 -10.749 203.679 -92.5703 148.41L-92.0107 147.583C-10.2309 202.824 113.01 304.784 230.648 438.721C232.918 428.755 235.269 418.844 237.694 408.995C288.012 204.68 370.561 26.5627 431.285 -75L432.144 -74.4873ZM1622.12 537.292C1609.2 573.049 1596.62 609.191 1584.49 645.373C1609.44 630.273 1634.04 615.044 1658.17 599.716C1646.64 578.773 1634.57 557.95 1622.12 537.292ZM231.19 440.854C226.774 460.348 222.668 480.051 218.919 499.922C230.064 488.278 241.253 476.829 252.475 465.569C245.408 457.216 238.31 448.976 231.19 440.854Z" fill="#FEEB41"/>
</svg>
