<svg width="393" height="1549" viewBox="0 0 393 1549" fill="none" xmlns="http://www.w3.org/2000/svg">
<path opacity="0.3" d="M-200.028 -222.524C-161.423 -106.891 -87.5535 -16.6639 -3.07227 65.4307C15.3863 100.735 44.9332 176.189 79.7549 276.444C114.747 377.191 155.054 502.955 194.78 638.117C188.334 663.828 181.904 689.863 175.556 716.134C144.865 843.132 116.046 975.667 96.2266 1103.66C68.0542 1075.23 39.9214 1048.89 11.8516 1025.98C-52.6234 973.354 -116.82 938.809 -180.464 938.781L-180.644 939.855C-117.251 939.883 -53.2065 974.301 11.2334 1026.89C39.436 1049.91 67.705 1076.4 96.0186 1105C72.1354 1259.69 61.4431 1407.7 76.5381 1531.21L76.9463 1530.91L77.3545 1530.61C62.3061 1407.48 72.9186 1259.95 96.6895 1105.68C132.839 1142.23 169.063 1182.2 205.314 1222.73C261.774 1285.86 318.305 1350.37 374.72 1405.47C380.392 1445.87 384.585 1483.72 387.035 1518.32L387.446 1518.05L387.858 1517.78C385.44 1483.62 381.323 1446.3 375.764 1406.49C383.812 1414.33 391.857 1421.99 399.899 1429.41C464.662 1489.22 529.277 1534.54 593.474 1548.97L593.81 1547.91C529.795 1533.53 465.29 1488.31 400.551 1428.52C392.209 1420.82 383.865 1412.87 375.517 1404.72C346.305 1196.78 277.91 921.432 205.895 672.752C202.489 660.991 199.073 649.291 195.654 637.659C223.646 526.04 251.956 420.562 275.433 328.486C275.781 327.121 276.127 325.759 276.473 324.399C351.358 404.894 411.876 494.883 436.958 609.227L437.446 609.12L437.935 609.013C412.755 494.221 351.929 403.943 276.766 323.246C304.995 212.268 325.988 121.151 330.503 62.9834L329.681 63.3262C325.188 121.208 304.316 211.915 276.169 322.606C231.966 275.227 182.834 231.14 133.093 187.32C87.4246 147.089 41.2461 107.081 -2.12402 64.9551C-3.91113 61.5228 -5.5954 58.461 -7.17285 55.7842L-7.89062 56.6992C-6.84332 58.4764 -5.74939 60.4244 -4.6084 62.5381C-88.0954 -18.9147 -160.88 -108.425 -199.079 -222.841L-200.028 -222.524ZM195.19 639.513C198.501 650.782 201.809 662.115 205.107 673.505C276.937 921.544 345.144 1196.04 374.471 1403.7C318.385 1348.81 262.178 1284.69 206.013 1221.89C169.607 1181.18 133.218 1141.03 96.8955 1104.33C116.706 976.148 145.573 843.348 176.334 716.06C182.562 690.288 188.868 664.745 195.19 639.513ZM-0.693359 67.7383C42.0919 109.142 87.5262 148.511 132.433 188.071C182.346 232.042 231.607 276.252 275.876 323.759C275.472 325.347 275.067 326.94 274.66 328.537C251.294 420.179 223.122 525.168 195.245 636.267C155.62 501.508 115.43 376.14 80.5283 275.652C46.7294 178.341 17.881 104.335 -0.693359 67.7383Z" fill="#FEEB41"/>
</svg>
